<svg width="67" height="67" viewBox="0 0 67 67" fill="none" xmlns="http://www.w3.org/2000/svg">
<path d="M33.0547 0C33.7001 17.9815 48.1279 32.4093 66.1094 33.0547C48.1279 33.7001 33.7001 48.1279 33.0547 66.1094C32.4093 48.1279 17.9815 33.7001 9.86855e-06 33.0547C17.9815 32.4093 32.4093 17.9815 33.0547 0Z" fill="white"/>
<path d="M54.3208 1.10535C54.4832 5.62975 58.1134 9.26 62.6378 9.42239C58.1134 9.58478 54.4832 13.215 54.3208 17.7394C54.1584 13.215 50.5282 9.58478 46.0038 9.42239C50.5282 9.26 54.1584 5.62975 54.3208 1.10535Z" fill="#E29D2D"/>
<path d="M12.3209 1.10535C12.4833 5.62975 16.1136 9.26 20.638 9.42239C16.1136 9.58478 12.4833 13.215 12.3209 17.7394C12.1585 13.215 8.52828 9.58478 4.00388 9.42239C8.52828 9.26 12.1585 5.62975 12.3209 1.10535Z" fill="#E29D2D"/>
</svg>
